<?xml version="1.0" encoding="utf-8"?>
<!-- Generator: Adobe Illustrator 23.1.0, SVG Export Plug-In . SVG Version: 6.00 Build 0)  -->
<svg version="1.1" id="Layer_1" xmlns="http://www.w3.org/2000/svg" xmlns:xlink="http://www.w3.org/1999/xlink" x="0px" y="0px"
	 viewBox="0 0 482.4 186.9" style="enable-background:new 0 0 482.4 186.9;" xml:space="preserve">
<style type="text/css">
	.st0{fill:#39B54A;}
	.st1{fill:#58595B;}
	.st2{fill:#FFFFFF;stroke:#FFFFFF;stroke-width:11.3769;stroke-miterlimit:10;}
	.st3{fill:none;stroke:#FFFFFF;stroke-width:11.3769;stroke-miterlimit:10;}
	.st4{stroke:#8DC63F;stroke-width:1.3378;stroke-miterlimit:10;}
	.st5{fill:none;stroke:#8DC63F;stroke-width:1.78;stroke-miterlimit:10;}
	.st6{fill:none;stroke:#8DC63F;stroke-width:1.3378;stroke-miterlimit:10;}
	.st7{fill:#8DC63F;}
</style>
<path class="st0" d="M404.5,79.1c0.5,0,1,0,1.5,0c0-1.3,0-2.6,0-3.9c0,0.2,0.2-2.9,0.1-3.1c0.8,1,1.7,2.1,2.6,3.2
	c-0.3-4.3-1.2-8.4-2.1-12.7c-0.2-1.1,0.4-3.3,0.5-3.3c3.4,0.3,3.1-2.8,2.7-3.9c-0.6-1.6-2.4-3.4-4-3.8c-6-1.6-11.1-4.6-15.3-9
	c-2.3-2.4-4.2-2.5-6.6-0.1c-0.7,0.7-2.9,1.1-3.4,0.6c-4-4.2-7.8-8.7-11.4-12.8c1.4-1.9,2.6-3.5,4.4-6c-7.2-2.4-13.2-6.5-20.5-6.5
	c-4,0-6.9-1.1-9.2-4.2c-5,2.3-11.3,1.7-14.9,7c-0.5,0.8-2.1,1.2-3.2,1.1c-6.9-0.7-11.8,3.8-17.2,6.8c-1,0.6-1.7,1.8-2.3,2.9
	c-1.9,3.2-3.4,6.7-5.7,9.5c-3,3.5-4.5,6.9-2.9,11.6c0.8,2.2,0.3,5,1.2,7.1c2,4.7,3.5,10.6,7.2,13.2c4.6,3.2,11.2,3.8,17,5.1
	c4.2,1,8.9,0.7,9.6,6.7c0.1,0.7,1.6,1.5,2.7,1.9c5.1,2.2,5.7,3.4,2.3,7.8c-3,4-3.7,7.8-2.1,12.7c1.2,3.7,1,8,0.6,11.9
	s-1.7,7.3-5.5,10.1c-2.6,1.9-4.3,6.3-4.5,9.7c-0.6,9.1-0.1,18.2-0.1,27.4c0,2-1.1,4-0.9,5.9c0.2,1.6,1.3,3.8,2.5,4.4
	c3.8,1.6,7.9,3.1,12,3.4c7.2,0.7,12.7-3.6,18.2-7.5c1.6-1.1,3.3-2.6,5.1-2.8c2.9-0.4,4.9-1.7,5-4.4c0.2-4.3,2.6-5.7,6.1-6.3
	c0-6.1,0.2-13.5,0.1-13.5c3.6,0.1,7.2,0.1,10.8,0.1c-0.1-4.4-0.1-20.3,0.1-20.3h8.5c0.3-6.1,0.9-13.8,0.3-13.9
	c2.1,0.3,4.2,0.6,6.3,0.9c0-5.8,0.1-12.2,0.1-12.2c1.5,0,2.9,0,4.3-0.1C404.3,95.6,404.4,79.1,404.5,79.1z"/>
<g>
	<path class="st1" d="M50.6,167.6v-9.4h3.9c1,0,1.9,0.2,2.6,0.6c0.8,0.4,1.4,0.9,1.8,1.7c0.4,0.8,0.6,1.5,0.6,2.4s-0.2,1.7-0.6,2.4
		c-0.4,0.7-1,1.2-1.8,1.6s-1.6,0.6-2.6,0.6L50.6,167.6L50.6,167.6z M51.9,166.4h2.5c0.8,0,1.4-0.1,2-0.4s1-0.7,1.3-1.2
		s0.5-1.1,0.5-1.8c0-0.7-0.2-1.3-0.5-1.9c-0.3-0.6-0.8-0.9-1.3-1.2c-0.5-0.3-1.2-0.4-2-0.4h-2.5V166.4z"/>
	<path class="st1" d="M61.4,167.6v-7.1h1.2v1.9l-0.1-0.5c0.2-0.5,0.5-0.9,1-1.1s1-0.4,1.7-0.4v1.2c-0.1,0-0.1,0-0.2,0s-0.1,0-0.1,0
		c-0.7,0-1.2,0.2-1.6,0.6c-0.4,0.4-0.6,1-0.6,1.8v3.5L61.4,167.6L61.4,167.6z"/>
	<path class="st1" d="M69.9,167.7c-0.8,0-1.4-0.2-2-0.5c-0.6-0.3-1-0.7-1.3-1.3s-0.5-1.2-0.5-1.9c0-0.7,0.2-1.3,0.5-1.9
		c0.3-0.6,0.7-1,1.3-1.3c0.5-0.3,1.2-0.5,1.8-0.5c0.7,0,1.3,0.1,1.8,0.4s0.9,0.7,1.2,1.3c0.3,0.6,0.4,1.2,0.4,1.9c0,0.1,0,0.1,0,0.2
		s0,0.1,0,0.2h-6v-0.9h5.4l-0.5,0.3c0-0.4-0.1-0.9-0.3-1.2c-0.2-0.3-0.5-0.6-0.8-0.8c-0.3-0.2-0.7-0.3-1.2-0.3
		c-0.4,0-0.8,0.1-1.2,0.3c-0.3,0.2-0.6,0.5-0.8,0.8c-0.2,0.3-0.3,0.8-0.3,1.2v0.2c0,0.5,0.1,0.9,0.3,1.3c0.2,0.4,0.5,0.7,0.9,0.9
		c0.4,0.2,0.8,0.3,1.3,0.3c0.4,0,0.8-0.1,1.1-0.2c0.3-0.1,0.6-0.4,0.9-0.6l0.7,0.8c-0.3,0.4-0.7,0.7-1.2,0.9
		C71,167.6,70.5,167.7,69.9,167.7z"/>
	<path class="st1" d="M76.8,167.7c-0.5,0-1-0.1-1.4-0.3c-0.4-0.2-0.7-0.4-0.9-0.7c-0.2-0.3-0.3-0.7-0.3-1.1s0.1-0.7,0.3-1
		c0.2-0.3,0.5-0.6,0.9-0.8c0.4-0.2,1-0.3,1.7-0.3h2.2v0.9h-2.2c-0.6,0-1.1,0.1-1.3,0.3c-0.2,0.2-0.3,0.5-0.3,0.8
		c0,0.4,0.1,0.6,0.4,0.8c0.3,0.2,0.7,0.3,1.2,0.3s0.9-0.1,1.3-0.3c0.4-0.2,0.6-0.5,0.8-0.9l0.2,0.9c-0.2,0.4-0.5,0.8-0.9,1
		C78,167.6,77.4,167.7,76.8,167.7z M79.1,167.6v-1.5l-0.1-0.3v-2.6c0-0.5-0.2-1-0.5-1.3c-0.3-0.3-0.8-0.4-1.4-0.4
		c-0.4,0-0.8,0.1-1.2,0.2c-0.4,0.1-0.7,0.3-1,0.6l-0.5-1c0.4-0.3,0.8-0.5,1.3-0.7c0.5-0.2,1.1-0.2,1.6-0.2c1,0,1.7,0.2,2.2,0.7
		s0.8,1.2,0.8,2.2v4.3H79.1L79.1,167.6z"/>
	<path class="st1" d="M91.6,160.4c0.6,0,1.1,0.1,1.5,0.3c0.4,0.2,0.8,0.6,1,1c0.2,0.5,0.4,1,0.4,1.7v4.1h-1.3v-3.9
		c0-0.7-0.2-1.2-0.5-1.6c-0.3-0.4-0.8-0.5-1.4-0.5c-0.4,0-0.8,0.1-1.1,0.3c-0.3,0.2-0.6,0.4-0.7,0.8c-0.1,0.4-0.3,0.8-0.3,1.3v3.6
		H88v-3.9c0-0.7-0.2-1.2-0.5-1.6c-0.3-0.4-0.8-0.5-1.4-0.5c-0.4,0-0.8,0.1-1.1,0.3c-0.3,0.2-0.6,0.4-0.8,0.8
		c-0.2,0.4-0.3,0.8-0.3,1.3v3.6h-1.3v-7.1h1.2v1.9l-0.2-0.5c0.2-0.5,0.6-0.8,1-1.1c0.4-0.3,1-0.4,1.6-0.4c0.7,0,1.3,0.2,1.8,0.5
		c0.5,0.3,0.8,0.8,1,1.5l-0.5-0.2c0.2-0.5,0.6-1,1.1-1.3C90.3,160.6,90.9,160.4,91.6,160.4z"/>
	<path class="st1" d="M96.4,169.6l0.7-2.7l0.2,0.8c-0.3,0-0.5-0.1-0.6-0.2c-0.1-0.1-0.3-0.4-0.3-0.7c0-0.3,0.1-0.5,0.3-0.7
		c0.2-0.2,0.4-0.2,0.6-0.2c0.3,0,0.5,0.1,0.6,0.3c0.1,0.2,0.2,0.4,0.2,0.6c0,0.1,0,0.2,0,0.3s0,0.2-0.1,0.3c0,0.1-0.1,0.2-0.1,0.4
		l-0.6,1.9L96.4,169.6L96.4,169.6z"/>
	<path class="st1" d="M103.7,167.6v-9.4h4.2c1.1,0,1.9,0.2,2.5,0.7c0.6,0.4,0.9,1,0.9,1.8c0,0.5-0.1,0.9-0.3,1.3
		c-0.2,0.4-0.5,0.6-0.9,0.8c-0.4,0.2-0.8,0.3-1.2,0.3l0.2-0.4c0.5,0,1,0.1,1.4,0.3c0.4,0.2,0.7,0.5,1,0.8c0.2,0.4,0.4,0.8,0.4,1.3
		c0,0.8-0.3,1.4-0.9,1.9c-0.6,0.4-1.5,0.7-2.7,0.7L103.7,167.6L103.7,167.6z M105,166.5h3.1c0.7,0,1.3-0.1,1.7-0.4s0.6-0.6,0.6-1.2
		c0-0.6-0.2-0.9-0.6-1.2c-0.4-0.3-1-0.4-1.7-0.4h-3.2v-1.1h2.9c0.7,0,1.2-0.1,1.6-0.4s0.6-0.6,0.6-1.1s-0.2-0.9-0.6-1.1
		s-0.9-0.4-1.6-0.4H105V166.5z"/>
	<path class="st1" d="M116.8,167.7c-0.8,0-1.4-0.2-2-0.5c-0.6-0.3-1-0.7-1.3-1.3c-0.3-0.5-0.5-1.2-0.5-1.9c0-0.7,0.1-1.3,0.5-1.9
		c0.3-0.5,0.7-1,1.3-1.3c0.5-0.3,1.1-0.5,1.8-0.5s1.3,0.1,1.8,0.4s0.9,0.7,1.2,1.3s0.4,1.2,0.4,1.9c0,0.1,0,0.1,0,0.2s0,0.1,0,0.2
		h-6v-0.9h5.4l-0.5,0.3c0-0.4-0.1-0.9-0.3-1.2c-0.2-0.3-0.5-0.6-0.8-0.8c-0.3-0.2-0.7-0.3-1.2-0.3c-0.4,0-0.8,0.1-1.2,0.3
		c-0.4,0.2-0.6,0.5-0.8,0.8c-0.2,0.4-0.3,0.8-0.3,1.2v0.2c0,0.5,0.1,0.9,0.3,1.3c0.2,0.4,0.5,0.7,0.9,0.9c0.4,0.2,0.8,0.3,1.4,0.3
		c0.4,0,0.8-0.1,1.1-0.2c0.3-0.1,0.6-0.4,0.9-0.6l0.7,0.8c-0.3,0.4-0.7,0.7-1.2,0.9C117.9,167.6,117.4,167.7,116.8,167.7z"/>
	<path class="st1" d="M121.8,167.6v-9.9h1.3v9.9H121.8z"/>
	<path class="st1" d="M126.2,159.1c-0.2,0-0.5-0.1-0.6-0.2c-0.2-0.2-0.2-0.4-0.2-0.6s0.1-0.4,0.2-0.6c0.2-0.2,0.4-0.2,0.6-0.2
		s0.5,0.1,0.6,0.2c0.1,0.1,0.2,0.3,0.2,0.6c0,0.2-0.1,0.4-0.2,0.6C126.7,159.1,126.4,159.1,126.2,159.1z M125.6,167.6v-7.1h1.3v7.1
		H125.6z"/>
	<path class="st1" d="M132.4,167.7c-0.8,0-1.4-0.2-2-0.5c-0.6-0.3-1-0.7-1.3-1.3c-0.3-0.5-0.5-1.2-0.5-1.9c0-0.7,0.1-1.3,0.5-1.9
		c0.3-0.5,0.7-1,1.3-1.3c0.5-0.3,1.1-0.5,1.8-0.5s1.3,0.1,1.8,0.4s0.9,0.7,1.2,1.3s0.4,1.2,0.4,1.9c0,0.1,0,0.1,0,0.2s0,0.1,0,0.2
		h-6v-0.9h5.4l-0.5,0.3c0-0.4-0.1-0.9-0.3-1.2c-0.2-0.3-0.5-0.6-0.8-0.8c-0.3-0.2-0.7-0.3-1.2-0.3c-0.4,0-0.8,0.1-1.2,0.3
		c-0.4,0.2-0.6,0.5-0.8,0.8c-0.2,0.4-0.3,0.8-0.3,1.2v0.2c0,0.5,0.1,0.9,0.3,1.3c0.2,0.4,0.5,0.7,0.9,0.9c0.4,0.2,0.8,0.3,1.4,0.3
		c0.4,0,0.8-0.1,1.1-0.2c0.3-0.1,0.6-0.4,0.9-0.6l0.7,0.8c-0.3,0.4-0.7,0.7-1.2,0.9C133.6,167.6,133,167.7,132.4,167.7z"/>
	<path class="st1" d="M139.2,167.6l-3.1-7.1h1.3l2.8,6.4h-0.6l2.8-6.4h1.3l-3.1,7.1H139.2z"/>
	<path class="st1" d="M147.8,167.7c-0.8,0-1.4-0.2-2-0.5c-0.6-0.3-1-0.7-1.3-1.3c-0.3-0.5-0.5-1.2-0.5-1.9c0-0.7,0.1-1.3,0.5-1.9
		c0.3-0.5,0.7-1,1.3-1.3c0.5-0.3,1.1-0.5,1.8-0.5s1.3,0.1,1.8,0.4s0.9,0.7,1.2,1.3s0.4,1.2,0.4,1.9c0,0.1,0,0.1,0,0.2s0,0.1,0,0.2
		h-6v-0.9h5.4l-0.5,0.3c0-0.4-0.1-0.9-0.3-1.2c-0.2-0.3-0.5-0.6-0.8-0.8c-0.3-0.2-0.7-0.3-1.2-0.3c-0.4,0-0.8,0.1-1.2,0.3
		c-0.4,0.2-0.6,0.5-0.8,0.8c-0.2,0.4-0.3,0.8-0.3,1.2v0.2c0,0.5,0.1,0.9,0.3,1.3c0.2,0.4,0.5,0.7,0.9,0.9c0.4,0.2,0.8,0.3,1.4,0.3
		c0.4,0,0.8-0.1,1.1-0.2c0.3-0.1,0.6-0.4,0.9-0.6l0.7,0.8c-0.3,0.4-0.7,0.7-1.2,0.9C148.9,167.6,148.4,167.7,147.8,167.7z"/>
	<path class="st1" d="M159.1,167.7c-0.6,0-1.2-0.1-1.7-0.3c-0.5-0.2-0.9-0.5-1.2-0.9s-0.4-0.8-0.4-1.3c0-0.4,0.1-0.8,0.3-1.1
		c0.2-0.3,0.5-0.7,0.9-1c0.4-0.3,0.9-0.7,1.6-1c0.5-0.3,1-0.5,1.3-0.8c0.3-0.3,0.5-0.4,0.7-0.6s0.2-0.4,0.2-0.6
		c0-0.3-0.1-0.6-0.3-0.7c-0.2-0.1-0.5-0.3-0.9-0.3s-0.8,0.1-1,0.3c-0.2,0.2-0.4,0.5-0.4,0.8c0,0.2,0,0.3,0.1,0.5
		c0.1,0.2,0.2,0.3,0.3,0.5c0.2,0.2,0.4,0.4,0.7,0.7l4.9,4.9l-0.7,0.9l-5.3-5.2c-0.3-0.3-0.6-0.6-0.7-0.8c-0.1-0.2-0.3-0.5-0.4-0.7
		c-0.1-0.2-0.1-0.5-0.1-0.7c0-0.4,0.1-0.8,0.3-1.1c0.2-0.3,0.5-0.6,0.9-0.7c0.4-0.2,0.8-0.3,1.3-0.3s0.9,0.1,1.2,0.2
		c0.3,0.1,0.6,0.4,0.8,0.7c0.2,0.3,0.3,0.6,0.3,1.1c0,0.4-0.1,0.7-0.3,1c-0.2,0.3-0.4,0.6-0.8,0.9s-0.9,0.6-1.6,0.9
		c-0.5,0.3-0.9,0.5-1.3,0.8c-0.3,0.2-0.5,0.5-0.6,0.7c-0.1,0.2-0.2,0.5-0.2,0.8c0,0.3,0.1,0.6,0.3,0.8c0.2,0.2,0.4,0.4,0.7,0.5
		s0.7,0.2,1.1,0.2c0.6,0,1.1-0.1,1.6-0.4s0.9-0.6,1.2-1.2c0.3-0.5,0.6-1.2,0.7-1.9l1,0.3c-0.2,0.9-0.5,1.7-0.9,2.3s-1,1.1-1.6,1.4
		C160.6,167.5,159.9,167.7,159.1,167.7z"/>
	<path class="st1" d="M169.4,167.6v-9.4h4.2c1.1,0,1.9,0.2,2.5,0.7c0.6,0.4,0.9,1,0.9,1.8c0,0.5-0.1,0.9-0.3,1.3
		c-0.2,0.4-0.5,0.6-0.9,0.8c-0.4,0.2-0.8,0.3-1.2,0.3l0.2-0.4c0.5,0,1,0.1,1.4,0.3c0.4,0.2,0.7,0.5,1,0.8c0.2,0.4,0.4,0.8,0.4,1.3
		c0,0.8-0.3,1.4-0.9,1.9c-0.6,0.4-1.5,0.7-2.7,0.7L169.4,167.6L169.4,167.6z M170.7,166.5h3.1c0.7,0,1.3-0.1,1.7-0.4
		s0.6-0.6,0.6-1.2c0-0.6-0.2-0.9-0.6-1.2c-0.4-0.3-1-0.4-1.7-0.4h-3.2v-1.1h2.9c0.7,0,1.2-0.1,1.6-0.4s0.6-0.6,0.6-1.1
		s-0.2-0.9-0.6-1.1s-0.9-0.4-1.6-0.4h-2.7v7.3H170.7z"/>
	<path class="st1" d="M182.3,167.7c-0.6,0-1.1-0.1-1.6-0.3c-0.5-0.2-0.8-0.6-1.1-1s-0.4-1-0.4-1.7v-4.1h1.3v3.9
		c0,0.7,0.2,1.2,0.5,1.6c0.3,0.4,0.8,0.5,1.4,0.5c0.4,0,0.8-0.1,1.2-0.3c0.4-0.2,0.6-0.4,0.8-0.8c0.2-0.4,0.3-0.8,0.3-1.3v-3.7h1.3
		v7.1h-1.2v-1.9l0.2,0.5c-0.2,0.5-0.6,0.8-1,1.1C183.6,167.6,182.9,167.7,182.3,167.7z"/>
	<path class="st1" d="M189,159.1c-0.2,0-0.5-0.1-0.6-0.2c-0.2-0.2-0.2-0.4-0.2-0.6s0.1-0.4,0.2-0.6c0.2-0.2,0.4-0.2,0.6-0.2
		s0.5,0.1,0.6,0.2c0.1,0.1,0.2,0.3,0.2,0.6c0,0.2-0.1,0.4-0.2,0.6C189.5,159.1,189.3,159.1,189,159.1z M188.4,167.6v-7.1h1.3v7.1
		H188.4z"/>
	<path class="st1" d="M192.1,167.6v-9.9h1.3v9.9H192.1z"/>
	<path class="st1" d="M198.8,167.7c-0.7,0-1.3-0.1-1.8-0.5c-0.5-0.3-1-0.7-1.3-1.3c-0.3-0.5-0.5-1.2-0.5-1.9c0-0.7,0.2-1.4,0.5-1.9
		s0.7-1,1.3-1.3c0.5-0.3,1.1-0.4,1.8-0.4c0.6,0,1.1,0.1,1.6,0.4s0.9,0.7,1.2,1.2s0.4,1.2,0.4,2c0,0.8-0.1,1.5-0.4,2
		s-0.7,0.9-1.1,1.2C199.9,167.5,199.4,167.7,198.8,167.7z M198.9,166.5c0.4,0,0.9-0.1,1.2-0.3c0.3-0.2,0.6-0.5,0.9-0.9
		s0.3-0.8,0.3-1.3s-0.1-0.9-0.3-1.3s-0.5-0.7-0.9-0.9c-0.4-0.2-0.8-0.3-1.2-0.3s-0.9,0.1-1.2,0.3c-0.4,0.2-0.6,0.5-0.9,0.9
		s-0.3,0.8-0.3,1.3s0.1,0.9,0.3,1.3c0.2,0.4,0.5,0.7,0.9,0.9C198.1,166.4,198.4,166.5,198.9,166.5z M201.3,167.6v-1.9l0.1-1.6
		l-0.1-1.6v-4.7h1.3v9.9h-1.3V167.6z"/>
	<path class="st1" d="M207.5,161.6v-1.1h4.5v1.1H207.5z M211,167.7c-0.7,0-1.3-0.2-1.7-0.6c-0.4-0.4-0.6-0.9-0.6-1.6V159h1.3v6.4
		c0,0.4,0.1,0.7,0.3,0.9c0.2,0.2,0.5,0.3,0.8,0.3c0.4,0,0.7-0.1,1-0.3l0.4,0.9c-0.2,0.2-0.4,0.3-0.7,0.4
		C211.6,167.6,211.3,167.7,211,167.7z"/>
	<path class="st1" d="M217.9,160.4c0.6,0,1.1,0.1,1.5,0.3c0.4,0.2,0.8,0.6,1,1s0.4,1,0.4,1.7v4.1h-1.3v-3.9c0-0.7-0.2-1.2-0.5-1.6
		c-0.3-0.4-0.8-0.5-1.4-0.5c-0.4,0-0.9,0.1-1.2,0.3c-0.3,0.2-0.6,0.4-0.8,0.8s-0.3,0.8-0.3,1.3v3.6H214v-9.9h1.3v4.7l-0.2-0.5
		c0.2-0.5,0.6-0.8,1.1-1.1C216.7,160.6,217.2,160.4,217.9,160.4z"/>
	<path class="st1" d="M226.4,167.7c-0.8,0-1.4-0.2-2-0.5c-0.6-0.3-1-0.7-1.3-1.3s-0.5-1.2-0.5-1.9c0-0.7,0.1-1.3,0.5-1.9
		c0.4-0.6,0.7-1,1.3-1.3c0.5-0.3,1.1-0.5,1.8-0.5c0.7,0,1.3,0.1,1.8,0.4s0.9,0.7,1.2,1.3s0.5,1.2,0.5,1.9c0,0.1,0,0.1,0,0.2
		s0,0.1,0,0.2h-6v-0.9h5.4l-0.5,0.3c0-0.4-0.1-0.9-0.3-1.2c-0.2-0.3-0.5-0.6-0.8-0.8c-0.3-0.2-0.7-0.3-1.2-0.3s-0.8,0.1-1.2,0.3
		c-0.4,0.2-0.6,0.5-0.8,0.8c-0.2,0.3-0.3,0.8-0.3,1.2v0.2c0,0.5,0.1,0.9,0.3,1.3c0.2,0.4,0.5,0.7,0.9,0.9c0.4,0.2,0.8,0.3,1.4,0.3
		c0.4,0,0.8-0.1,1.1-0.2c0.3-0.1,0.6-0.4,0.9-0.6l0.7,0.8c-0.3,0.4-0.7,0.7-1.2,0.9C227.5,167.6,227,167.7,226.4,167.7z"/>
	<path class="st1" d="M236.5,167.6h-1.3v-9.4h6.6v1.2h-5.3L236.5,167.6L236.5,167.6z M236.4,162.6h4.8v1.1h-4.8V162.6z"/>
	<path class="st1" d="M246.2,167.7c-0.6,0-1.1-0.1-1.6-0.3c-0.5-0.2-0.8-0.6-1.1-1s-0.4-1-0.4-1.7v-4.1h1.3v3.9
		c0,0.7,0.2,1.2,0.5,1.6c0.3,0.4,0.8,0.5,1.4,0.5c0.5,0,0.8-0.1,1.2-0.3c0.4-0.2,0.6-0.4,0.8-0.8c0.2-0.4,0.3-0.8,0.3-1.3v-3.7h1.3
		v7.1h-1.2v-1.9l0.2,0.5c-0.2,0.5-0.6,0.8-1,1.1C247.5,167.6,246.8,167.7,246.2,167.7z"/>
	<path class="st1" d="M251.3,161.6v-1.1h4.5v1.1H251.3z M254.8,167.7c-0.7,0-1.3-0.2-1.7-0.6c-0.4-0.4-0.6-0.9-0.6-1.6V159h1.3v6.4
		c0,0.4,0.1,0.7,0.3,0.9c0.2,0.2,0.5,0.3,0.8,0.3c0.4,0,0.7-0.1,1-0.3l0.4,0.9c-0.2,0.2-0.4,0.3-0.7,0.4
		C255.3,167.6,255,167.7,254.8,167.7z"/>
	<path class="st1" d="M260.8,167.7c-0.6,0-1.1-0.1-1.6-0.3c-0.5-0.2-0.8-0.6-1.1-1s-0.4-1-0.4-1.7v-4.1h1.3v3.9
		c0,0.7,0.2,1.2,0.5,1.6c0.3,0.4,0.8,0.5,1.4,0.5c0.5,0,0.8-0.1,1.2-0.3c0.4-0.2,0.6-0.4,0.8-0.8c0.2-0.4,0.3-0.8,0.3-1.3v-3.7h1.3
		v7.1h-1.2v-1.9l0.2,0.5c-0.2,0.5-0.6,0.8-1,1.1C262.1,167.6,261.4,167.7,260.8,167.7z"/>
	<path class="st1" d="M266.9,167.6v-7.1h1.2v1.9l-0.1-0.5c0.2-0.5,0.5-0.9,1-1.1s1-0.4,1.7-0.4v1.2h-0.1h-0.1
		c-0.7,0-1.2,0.2-1.6,0.6c-0.4,0.4-0.6,1-0.6,1.8v3.5L266.9,167.6L266.9,167.6z"/>
	<path class="st1" d="M275.4,167.7c-0.8,0-1.4-0.2-2-0.5c-0.6-0.3-1-0.7-1.3-1.3s-0.5-1.2-0.5-1.9c0-0.7,0.1-1.3,0.5-1.9
		c0.4-0.6,0.7-1,1.3-1.3c0.5-0.3,1.1-0.5,1.8-0.5c0.7,0,1.3,0.1,1.8,0.4s0.9,0.7,1.2,1.3s0.5,1.2,0.5,1.9c0,0.1,0,0.1,0,0.2
		s0,0.1,0,0.2h-6v-0.9h5.4l-0.5,0.3c0-0.4-0.1-0.9-0.3-1.2c-0.2-0.3-0.5-0.6-0.8-0.8c-0.3-0.2-0.7-0.3-1.2-0.3s-0.8,0.1-1.2,0.3
		c-0.4,0.2-0.6,0.5-0.8,0.8c-0.2,0.3-0.3,0.8-0.3,1.2v0.2c0,0.5,0.1,0.9,0.3,1.3c0.2,0.4,0.5,0.7,0.9,0.9c0.4,0.2,0.8,0.3,1.4,0.3
		c0.4,0,0.8-0.1,1.1-0.2c0.3-0.1,0.6-0.4,0.9-0.6l0.7,0.8c-0.3,0.4-0.7,0.7-1.2,0.9C276.5,167.6,276,167.7,275.4,167.7z"/>
</g>
<g>
	<g>
		<circle class="st2" cx="397.2" cy="101.4" r="1.4"/>
		<circle class="st2" cx="394.7" cy="162" r="1.1"/>
		<line class="st3" x1="415.2" y1="52.1" x2="445.5" y2="71.7"/>
		<line class="st3" x1="416.1" y1="64.4" x2="415.2" y2="52.1"/>
		<line class="st3" x1="405.5" y1="73.3" x2="416.1" y2="64.4"/>
		<line class="st3" x1="393.6" y1="88.3" x2="405.5" y2="73.3"/>
		<line class="st3" x1="422.3" y1="87.9" x2="405.5" y2="73.3"/>
		<line class="st3" x1="416.1" y1="64.4" x2="422.3" y2="87.9"/>
		<line class="st3" x1="445.7" y1="72.2" x2="422.3" y2="87.9"/>
		<line class="st3" x1="393.6" y1="87.9" x2="422.3" y2="87.9"/>
		<line class="st3" x1="397.2" y1="101.4" x2="422.3" y2="87.9"/>
		<line class="st3" x1="393.6" y1="88.3" x2="397.2" y2="101.4"/>
		<line class="st3" x1="431" y1="108.8" x2="393.2" y2="87.9"/>
		<line class="st3" x1="423" y1="87.9" x2="431.4" y2="108.8"/>
		<line class="st3" x1="397.2" y1="101.4" x2="419" y2="118.9"/>
		<line class="st3" x1="396.1" y1="113.1" x2="397.2" y2="100.8"/>
		<line class="st3" x1="419" y1="118.9" x2="396.1" y2="112.4"/>
		<line class="st3" x1="389.3" y1="126.5" x2="396.1" y2="112.4"/>
		<line class="st3" x1="369.6" y1="129.8" x2="389.3" y2="126.5"/>
		<line class="st3" x1="372.5" y1="144.1" x2="389.3" y2="126.5"/>
		<line class="st3" x1="394.5" y1="146.4" x2="369.6" y2="129.8"/>
		<line class="st3" x1="368.3" y1="153.9" x2="372.5" y2="144.1"/>
		<line class="st3" x1="378.5" y1="167" x2="368.3" y2="153.9"/>
		<line class="st3" x1="394.7" y1="146.4" x2="368.3" y2="153.9"/>
		<line class="st3" x1="394.7" y1="162" x2="378.5" y2="167"/>
		<line class="st3" x1="372.5" y1="144.1" x2="394.7" y2="162"/>
		<line class="st3" x1="408.1" y1="167" x2="394.7" y2="146.4"/>
		<line class="st3" x1="394.7" y1="162" x2="408.1" y2="167"/>
		<line class="st3" x1="421.1" y1="151.5" x2="408.1" y2="167"/>
		<line class="st3" x1="394.5" y1="146.4" x2="421.1" y2="151.5"/>
		<line class="st3" x1="425.2" y1="134.1" x2="394.5" y2="146.4"/>
		<line class="st3" x1="419" y1="118.9" x2="394.7" y2="146.4"/>
		<line class="st3" x1="389.8" y1="126.5" x2="425.2" y2="134.1"/>
		<line class="st3" x1="437.3" y1="162.5" x2="425.2" y2="134.1"/>
		<line class="st3" x1="421.1" y1="151.5" x2="425.2" y2="134.1"/>
		<line class="st3" x1="452.9" y1="148.6" x2="437.3" y2="163"/>
		<line class="st3" x1="445.6" y1="125.2" x2="425.2" y2="134.1"/>
		<line class="st3" x1="452.4" y1="149" x2="425.2" y2="134.1"/>
		<line class="st3" x1="445.6" y1="125.2" x2="452.4" y2="149"/>
		<line class="st3" x1="468.4" y1="128.5" x2="452.4" y2="149"/>
		<line class="st3" x1="445.6" y1="125.2" x2="468.4" y2="128.5"/>
		<line class="st3" x1="467.9" y1="104.4" x2="468.4" y2="128.5"/>
		<line class="st3" x1="445.1" y1="125.2" x2="467.9" y2="104.4"/>
		<line class="st3" x1="457.9" y1="86.9" x2="445.1" y2="98"/>
		<line class="st3" x1="467.9" y1="104.4" x2="457.9" y2="86.9"/>
		<line class="st3" x1="445.1" y1="98" x2="468.4" y2="128.5"/>
		<line class="st3" x1="431.4" y1="108.8" x2="445.1" y2="98"/>
		<line class="st3" x1="423" y1="87.9" x2="445.1" y2="98"/>
		<line class="st3" x1="445.7" y1="72.2" x2="457.9" y2="86.9"/>
		<line class="st3" x1="467.9" y1="104.4" x2="457.9" y2="86.9"/>
		<line class="st3" x1="445.1" y1="98" x2="445.7" y2="72.2"/>
		<line class="st3" x1="457.3" y1="86.9" x2="445.1" y2="98"/>
		<line class="st3" x1="431" y1="109.3" x2="445.6" y2="125.2"/>
		<line class="st3" x1="418.5" y1="119.4" x2="445.6" y2="125.2"/>
		<line class="st3" x1="444.5" y1="97.7" x2="445.6" y2="125.2"/>
		<line class="st3" x1="416.1" y1="64.4" x2="445.5" y2="71.7"/>
		<line class="st3" x1="457.3" y1="86.9" x2="445.1" y2="98"/>
		<line class="st3" x1="431" y1="109.3" x2="396.7" y2="101.4"/>
		<line class="st3" x1="421.1" y1="151.5" x2="437.3" y2="163"/>
	</g>
	<g>
		<circle class="st2" cx="393.6" cy="88.3" r="3.6"/>
		<circle class="st2" cx="396.1" cy="112.4" r="2.5"/>
		<circle class="st2" cx="389.3" cy="126.5" r="3.9"/>
		<circle class="st2" cx="369.6" cy="129.8" r="3.3"/>
		<circle class="st2" cx="372.5" cy="144.1" r="2.9"/>
		<circle class="st2" cx="368.3" cy="153.9" r="2.1"/>
		<circle class="st2" cx="378.5" cy="167" r="3.1"/>
		<circle class="st2" cx="408.1" cy="167" r="2"/>
		<circle class="st2" cx="394.5" cy="146.4" r="5.2"/>
		<circle class="st2" cx="419" cy="118.9" r="4"/>
		<circle class="st2" cx="425.2" cy="134.1" r="2.3"/>
		<circle class="st2" cx="421.1" cy="151.5" r="4.5"/>
		<circle class="st2" cx="437.3" cy="163" r="2"/>
		<circle class="st2" cx="452.9" cy="148.6" r="4.4"/>
		<circle class="st2" cx="445.6" cy="125.2" r="6.3"/>
		<circle class="st2" cx="468.4" cy="128.5" r="3.3"/>
		<circle class="st2" cx="467.6" cy="104" r="2.6"/>
		<circle class="st2" cx="457.3" cy="86.9" r="2.3"/>
		<circle class="st2" cx="445.5" cy="71.7" r="3"/>
		<circle class="st2" cx="415.2" cy="52.1" r="2"/>
		<circle class="st2" cx="416.1" cy="64.4" r="2.9"/>
		<circle class="st2" cx="405.5" cy="73.3" r="4.6"/>
		<circle class="st2" cx="422.3" cy="87.9" r="3.3"/>
		<circle class="st2" cx="431" cy="108.8" r="2.3"/>
		<circle class="st2" cx="445.1" cy="98" r="3.3"/>
	</g>
</g>
<g>
	<circle class="st4" cx="397.2" cy="101.4" r="1.4"/>
	<circle class="st4" cx="394.7" cy="162" r="1.1"/>
	<line class="st5" x1="415.2" y1="52.1" x2="445.5" y2="71.7"/>
	<line class="st5" x1="416.1" y1="64.4" x2="415.2" y2="52.1"/>
	<line class="st5" x1="405.5" y1="73.3" x2="416.1" y2="64.4"/>
	<line class="st5" x1="393.6" y1="88.3" x2="405.5" y2="73.3"/>
	<line class="st5" x1="422.3" y1="87.9" x2="405.5" y2="73.3"/>
	<line class="st5" x1="416.1" y1="64.4" x2="422.3" y2="87.9"/>
	<line class="st5" x1="445.7" y1="72.2" x2="422.3" y2="87.9"/>
	<line class="st5" x1="393.6" y1="87.9" x2="422.3" y2="87.9"/>
	<line class="st5" x1="397.2" y1="101.4" x2="422.3" y2="87.9"/>
	<line class="st5" x1="393.6" y1="88.3" x2="397.2" y2="101.4"/>
	<line class="st5" x1="431" y1="108.8" x2="393.2" y2="87.9"/>
	<line class="st5" x1="423" y1="87.9" x2="431.4" y2="108.8"/>
	<line class="st5" x1="397.2" y1="101.4" x2="419" y2="118.9"/>
	<line class="st5" x1="396.1" y1="113.1" x2="397.2" y2="100.8"/>
	<line class="st5" x1="419" y1="118.9" x2="396.1" y2="112.4"/>
	<line class="st5" x1="389.3" y1="126.5" x2="396.1" y2="112.4"/>
	<line class="st5" x1="369.6" y1="129.8" x2="389.3" y2="126.5"/>
	<line class="st5" x1="372.5" y1="144.1" x2="389.3" y2="126.5"/>
	<line class="st5" x1="394.5" y1="146.4" x2="369.6" y2="129.8"/>
	<line class="st5" x1="368.3" y1="153.9" x2="372.5" y2="144.1"/>
	<line class="st5" x1="378.5" y1="167" x2="368.3" y2="153.9"/>
	<line class="st5" x1="394.7" y1="146.4" x2="368.3" y2="153.9"/>
	<line class="st5" x1="394.7" y1="162" x2="378.5" y2="167"/>
	<line class="st5" x1="372.5" y1="144.1" x2="394.7" y2="162"/>
	<line class="st5" x1="408.1" y1="167" x2="394.7" y2="146.4"/>
	<line class="st5" x1="394.7" y1="162" x2="408.1" y2="167"/>
	<line class="st5" x1="421.1" y1="151.5" x2="408.1" y2="167"/>
	<line class="st5" x1="394.5" y1="146.4" x2="421.1" y2="151.5"/>
	<line class="st5" x1="425.2" y1="134.1" x2="394.5" y2="146.4"/>
	<line class="st5" x1="419" y1="118.9" x2="394.7" y2="146.4"/>
	<line class="st5" x1="389.8" y1="126.5" x2="425.2" y2="134.1"/>
	<line class="st5" x1="437.3" y1="162.5" x2="425.2" y2="134.1"/>
	<line class="st5" x1="421.1" y1="151.5" x2="425.2" y2="134.1"/>
	<line class="st5" x1="452.9" y1="148.6" x2="437.3" y2="163"/>
	<line class="st5" x1="445.6" y1="125.2" x2="425.2" y2="134.1"/>
	<line class="st5" x1="452.4" y1="149" x2="425.2" y2="134.1"/>
	<line class="st5" x1="445.6" y1="125.2" x2="452.4" y2="149"/>
	<line class="st5" x1="468.4" y1="128.5" x2="452.4" y2="149"/>
	<line class="st5" x1="445.6" y1="125.2" x2="468.4" y2="128.5"/>
	<line class="st5" x1="467.9" y1="104.4" x2="468.4" y2="128.5"/>
	<line class="st5" x1="445.1" y1="125.2" x2="467.9" y2="104.4"/>
	<line class="st6" x1="457.9" y1="86.9" x2="445.1" y2="98"/>
	<line class="st6" x1="467.9" y1="104.4" x2="457.9" y2="86.9"/>
	<line class="st5" x1="445.1" y1="98" x2="468.4" y2="128.5"/>
	<line class="st6" x1="431.4" y1="108.8" x2="445.1" y2="98"/>
	<line class="st5" x1="423" y1="87.9" x2="445.1" y2="98"/>
	<line class="st5" x1="445.7" y1="72.2" x2="457.9" y2="86.9"/>
	<line class="st5" x1="467.9" y1="104.4" x2="457.9" y2="86.9"/>
	<line class="st5" x1="445.1" y1="98" x2="445.7" y2="72.2"/>
	<line class="st6" x1="457.3" y1="86.9" x2="445.1" y2="98"/>
	<line class="st5" x1="431" y1="109.3" x2="445.6" y2="125.2"/>
	<line class="st5" x1="418.5" y1="119.4" x2="445.6" y2="125.2"/>
	<line class="st5" x1="444.5" y1="97.7" x2="445.6" y2="125.2"/>
	<line class="st5" x1="416.1" y1="64.4" x2="445.5" y2="71.7"/>
	<line class="st5" x1="457.3" y1="86.9" x2="445.1" y2="98"/>
	<line class="st5" x1="431" y1="109.3" x2="396.7" y2="101.4"/>
	<line class="st5" x1="421.1" y1="151.5" x2="437.3" y2="163"/>
</g>
<g>
	<circle class="st7" cx="393.6" cy="88.3" r="3.6"/>
	<circle class="st7" cx="396.1" cy="112.4" r="2.5"/>
	<circle class="st7" cx="389.3" cy="126.5" r="3.9"/>
	<circle class="st7" cx="369.6" cy="129.8" r="3.3"/>
	<circle class="st7" cx="372.5" cy="144.1" r="2.9"/>
	<circle class="st7" cx="368.3" cy="153.9" r="2.1"/>
	<circle class="st7" cx="378.5" cy="167" r="3.1"/>
	<circle class="st7" cx="408.1" cy="167" r="2"/>
	<circle class="st7" cx="394.5" cy="146.4" r="5.2"/>
	<circle class="st7" cx="419" cy="118.9" r="4"/>
	<circle class="st7" cx="425.2" cy="134.1" r="2.3"/>
	<circle class="st7" cx="421.1" cy="151.5" r="4.5"/>
	<circle class="st7" cx="437.3" cy="163" r="2"/>
	<circle class="st7" cx="452.9" cy="148.6" r="4.4"/>
	<circle class="st7" cx="445.6" cy="125.2" r="6.3"/>
	<circle class="st7" cx="468.4" cy="128.5" r="3.3"/>
	<circle class="st7" cx="467.6" cy="104" r="2.6"/>
	<circle class="st7" cx="457.3" cy="86.9" r="2.3"/>
	<circle class="st7" cx="445.5" cy="71.7" r="3"/>
	<circle class="st7" cx="415.2" cy="52.1" r="2"/>
	<circle class="st7" cx="416.1" cy="64.4" r="2.9"/>
	<circle class="st7" cx="405.5" cy="73.3" r="4.6"/>
	<circle class="st7" cx="422.3" cy="87.9" r="3.3"/>
	<circle class="st7" cx="431" cy="108.8" r="2.3"/>
	<circle class="st7" cx="445.1" cy="98" r="3.3"/>
</g>
<g>
	<path class="st0" d="M9.3,113.1v-7.6h3.4V79.7H9.3v-7.6h21.8c4.9,0,8.5,0.9,10.8,2.6s3.5,4.2,3.5,7.4c0,1.2-0.1,2.3-0.3,3.2
		c-0.2,0.9-0.5,1.7-0.9,2.5s-1,1.4-1.8,1.9c-0.7,0.6-1.7,1-2.8,1.5c1,0.3,2,0.7,3,1.3c0.9,0.5,1.8,1.2,2.5,2s1.3,1.8,1.7,2.9
		s0.6,2.4,0.6,3.8c0,4.1-1.2,7.2-3.7,9.1s-6.5,2.8-12.2,2.8L9.3,113.1L9.3,113.1z M24.8,79.9v8.8h3.6c1.6,0,2.6-0.4,3.2-1.2
		c0.5-0.8,0.8-1.9,0.8-3.3S32,81.8,31.3,81c-0.7-0.7-1.6-1.1-2.8-1.1C28.5,79.9,24.8,79.9,24.8,79.9z M29.5,105.5
		c1.2,0,2.3-0.4,3.3-1.3c1-0.9,1.4-2.1,1.4-3.7c0-1.5-0.4-2.7-1.2-3.7s-2-1.5-3.7-1.5h-4.5v10.2H29.5z"/>
	<path class="st0" d="M66.1,113.1H49.5v-7.7h2.6v-14h-2.5v-7.6h11l1.8,3.8c0.4-0.7,0.8-1.4,1.2-2c0.4-0.6,1-1.2,1.6-1.7
		c0.7-0.5,1.5-0.9,2.5-1.1c1-0.3,2.2-0.4,3.8-0.4v10.5c-2.7,0-4.7,0.4-6.1,1.3s-2.1,2.6-2.1,5.2v6h2.9L66.1,113.1L66.1,113.1z"/>
	<path class="st0" d="M74.4,86.3c0.6-0.3,1.3-0.8,2.2-1.2c0.9-0.5,1.9-0.9,3-1.4c1.1-0.4,2.3-0.8,3.6-1.1s2.6-0.4,3.9-0.4
		c1.8,0,3.6,0.2,5.4,0.6c1.9,0.4,3.6,1,5.1,1.9s2.8,2.2,3.8,3.7s1.5,3.5,1.5,5.9v11.4h3.5v7.5H94l-1.4-2.6c-0.6,0.7-1.2,1.4-1.8,1.8
		c-0.7,0.5-1.4,0.9-2.1,1.1s-1.4,0.5-2.1,0.6s-1.3,0.2-1.8,0.2c-1.4,0-2.8-0.2-4.2-0.6s-2.6-1-3.7-1.8s-2-1.8-2.7-3s-1-2.7-1-4.4
		c0-1.6,0.3-3.1,1-4.4c0.6-1.3,1.5-2.5,2.6-3.4s2.4-1.7,3.9-2.2s3-0.8,4.7-0.8c0.9,0,1.6,0.1,2.3,0.3c0.7,0.2,1.3,0.4,1.8,0.6
		s0.9,0.5,1.2,0.7c0.3,0.2,0.5,0.4,0.6,0.5v-2.1c0-1.3-0.5-2.2-1.6-2.6s-2.4-0.6-4-0.6c-1.8,0-3.4,0.3-4.8,0.9s-2.8,1.2-3.9,1.8
		L74.4,86.3z M87.4,106.6c0.9,0,1.7-0.2,2.3-0.6c0.7-0.4,1.1-0.9,1.4-1.3v-2.2c0-0.1-0.1-0.2-0.3-0.4c-0.1-0.2-0.3-0.4-0.6-0.6
		c-0.3-0.2-0.6-0.4-1-0.5s-0.9-0.2-1.6-0.2c-1.2,0-2,0.3-2.6,0.9s-0.8,1.3-0.8,2.2c0,0.8,0.3,1.5,0.9,2
		C85.8,106.4,86.5,106.6,87.4,106.6z"/>
	<path class="st0" d="M125.3,113.1h-16.4v-7.7h2.5v-14h-2.5v-7.6h13.6v21.6h2.8V113.1L125.3,113.1z M110.5,75.3
		c0-0.7,0.1-1.3,0.4-2.1c0.3-0.7,0.7-1.3,1.2-1.9s1.2-1.1,2-1.4c0.8-0.4,1.7-0.6,2.7-0.6s1.9,0.2,2.7,0.6c0.8,0.4,1.5,0.8,2,1.4
		c0.6,0.6,1,1.2,1.3,1.9s0.4,1.4,0.4,2.1c0,1.6-0.6,3-1.6,4.2s-2.7,1.7-4.8,1.7c-0.9,0-1.8-0.2-2.6-0.5s-1.4-0.8-2-1.4
		s-1-1.2-1.3-1.9C110.7,76.7,110.5,76,110.5,75.3z"/>
	<path class="st0" d="M146.2,113.1h-18v-7.7h2.5v-14h-2.5v-7.6h12.5l1.4,3.6c1-1.4,2.2-2.5,3.5-3.4s3-1.3,4.8-1.3
		c2.3,0,4.1,0.4,5.5,1.1s2.5,1.8,3.2,3c0.8,1.2,1.3,2.6,1.5,4.2s0.4,3.1,0.4,4.6v9.8h2.8v7.7H149v-16c0-0.5,0-1.1,0-1.7
		s-0.1-1.2-0.3-1.8c-0.2-0.6-0.5-1-1-1.4s-1.1-0.6-2-0.6c-0.7,0-1.4,0.2-1.8,0.5c-0.5,0.3-0.9,0.8-1.1,1.3s-0.5,1.1-0.6,1.8
		c-0.1,0.6-0.1,1.3-0.1,1.9v8.3h4.2L146.2,113.1L146.2,113.1z"/>
	<path class="st0" d="M165.5,113.1v-10.5h7.9c0,0.8,0.2,1.4,0.7,1.9s1.1,0.9,1.7,1.2c0.7,0.3,1.4,0.5,2.1,0.6
		c0.7,0.1,1.3,0.2,1.7,0.2c0.6,0,1.2-0.1,1.7-0.4c0.6-0.2,0.9-0.8,0.9-1.6c0-0.6-0.4-1-1.2-1.3s-1.8-0.7-3-1s-2.6-0.7-3.9-1.1
		s-2.7-1-3.9-1.8s-2.2-1.8-3.1-3c-0.8-1.2-1.2-2.8-1.2-4.7c0-1.5,0.3-2.8,1-3.8c0.7-1.1,1.5-1.9,2.6-2.6c1-0.7,2.1-1.2,3.3-1.5
		s2.3-0.5,3.4-0.5c2,0,3.8,0.4,5.4,1.3s2.7,2,3.3,3.2l0.5-3.9h7.2v10.5H185c0-0.6-0.2-1.2-0.5-1.7c-0.4-0.5-0.8-1-1.4-1.4
		s-1.2-0.7-1.9-1c-0.7-0.2-1.4-0.3-2.2-0.3c-0.6,0-1.2,0.2-1.6,0.5s-0.7,0.9-0.7,1.6s0.4,1.2,1.2,1.6s1.8,0.8,3.1,1.1
		c1.2,0.4,2.6,0.8,4,1.2c1.4,0.4,2.8,1,4,1.8c1.2,0.7,2.2,1.7,3.1,2.8c0.8,1.2,1.2,2.6,1.2,4.4c0,1.4-0.3,2.6-0.9,3.7
		c-0.6,1.1-1.4,2-2.4,2.8s-2.2,1.3-3.5,1.7c-1.3,0.4-2.7,0.6-4.1,0.6c-2.1,0-3.9-0.4-5.5-1.3s-2.7-1.8-3.4-3L173,113L165.5,113.1
		L165.5,113.1z"/>
	<path class="st0" d="M195.2,83.8h3.2v-5.4l10.8-3.4v8.8h5.6v7.6h-5.6v10.4c0,0.3,0,0.6,0,0.8s0,0.6,0,0.9c0,0.8,0.1,1.5,0.3,2.1
		s0.8,0.9,1.6,0.9c0.4,0,1-0.1,1.7-0.3s1.4-0.4,2-0.7v7.5c-0.4,0.2-1,0.4-1.6,0.5s-1.4,0.2-2.1,0.3s-1.4,0.2-2,0.2s-1.1,0.1-1.4,0.1
		c-2.2,0-3.9-0.3-5.1-0.9s-2.1-1.4-2.7-2.5c-0.6-1.1-1-2.3-1.1-3.9c-0.2-1.5-0.2-3.2-0.3-5.1V91.4h-3.2L195.2,83.8L195.2,83.8z"/>
	<path class="st0" d="M217.7,86.3c0.6-0.3,1.3-0.8,2.2-1.2c0.9-0.5,1.9-0.9,3-1.4c1.1-0.4,2.3-0.8,3.6-1.1s2.6-0.4,3.9-0.4
		c1.8,0,3.6,0.2,5.4,0.6c1.9,0.4,3.6,1,5.1,1.9s2.8,2.2,3.8,3.7s1.5,3.5,1.5,5.9v11.4h3.5v7.5h-12.5l-1.4-2.6
		c-0.6,0.7-1.2,1.4-1.8,1.8c-0.7,0.5-1.4,0.9-2.1,1.1s-1.4,0.5-2.1,0.6c-0.7,0.1-1.3,0.2-1.8,0.2c-1.4,0-2.8-0.2-4.2-0.6
		s-2.6-1-3.7-1.8c-1.1-0.8-2-1.8-2.7-3s-1-2.7-1-4.4c0-1.6,0.3-3.1,1-4.4c0.6-1.3,1.5-2.5,2.6-3.4s2.4-1.7,3.9-2.2s3-0.8,4.7-0.8
		c0.9,0,1.6,0.1,2.3,0.3c0.7,0.2,1.3,0.4,1.8,0.6s0.9,0.5,1.2,0.7s0.5,0.4,0.6,0.5v-2.1c0-1.3-0.5-2.2-1.6-2.6s-2.4-0.6-4-0.6
		c-1.8,0-3.4,0.3-4.8,0.9s-2.8,1.2-3.9,1.8L217.7,86.3z M230.7,106.6c0.9,0,1.7-0.2,2.3-0.6s1.1-0.9,1.4-1.3v-2.2
		c0-0.1-0.1-0.2-0.3-0.4c-0.1-0.2-0.3-0.4-0.6-0.6s-0.6-0.4-1-0.5s-0.9-0.2-1.6-0.2c-1.2,0-2,0.3-2.6,0.9s-0.8,1.3-0.8,2.2
		c0,0.8,0.3,1.5,0.9,2C229.1,106.4,229.8,106.6,230.7,106.6z"/>
	<path class="st0" d="M253,113.1v-7.6h2.4V76.9H253v-7.7h13.5v26.5l6.8-4h-4.2V84h16.4v7.7H281l-4,2.5l7.9,11.3h2.9v7.7h-17.3v-7.7
		h2.5l-4.5-6.3l-2,1.4v4.9h2.2v7.7L253,113.1L253,113.1z"/>
	<path class="st0" d="M319.9,109.1c-2.2,1.9-4.5,3.2-6.9,3.9c-2.4,0.8-5.1,1.1-8.2,1.1c-1.8,0-3.7-0.3-5.5-0.9s-3.5-1.5-5-2.8
		s-2.7-2.9-3.6-4.9s-1.4-4.4-1.4-7.2c0-2.4,0.4-4.5,1.2-6.4c0.8-1.9,1.9-3.5,3.3-4.8s3.1-2.3,5-3s4-1,6.2-1c2.4,0,4.6,0.3,6.4,1.1
		s3.4,1.7,4.7,2.9s2.2,2.7,2.8,4.4s0.9,3.5,0.9,5.5c0,0.8-0.1,1.6-0.2,2.3c-0.1,0.8-0.3,1.5-0.5,2.1h-18.5c0.1,0.4,0.2,0.9,0.4,1.4
		c0.2,0.6,0.5,1.1,0.9,1.6s1,0.9,1.8,1.3c0.7,0.3,1.7,0.5,3,0.5c0.5,0,1.1,0,1.7-0.1c0.6,0,1.3-0.2,2-0.3c0.7-0.2,1.4-0.5,2.2-0.8
		c0.8-0.4,1.6-0.9,2.3-1.6L319.9,109.1z M305.5,90.9c-0.9,0-1.6,0.2-2.2,0.5s-1,0.8-1.4,1.3c-0.3,0.5-0.6,1-0.7,1.6s-0.2,1-0.3,1.3
		h8.8c0-0.6-0.1-1.1-0.2-1.7s-0.3-1.1-0.6-1.5c-0.3-0.4-0.7-0.8-1.3-1.1C307.1,91.1,306.4,90.9,305.5,90.9z"/>
</g>
<g>
	<path class="st7" d="M163,140.1c0,1.2-0.3,2.2-0.9,3.1c-0.6,0.9-1.5,1.5-2.7,2s-2.6,0.7-4.2,0.7c-1.5,0-3-0.2-4.4-0.6
		c-1.4-0.4-2.5-1-3.3-1.7l1.3-2.6c0.8,0.6,1.7,1.1,2.9,1.5s2.4,0.6,3.6,0.6c1.6,0,2.8-0.3,3.4-0.8c0.7-0.5,1-1.2,1-1.9
		c0-0.6-0.2-1.1-0.6-1.5c-0.4-0.4-1-0.7-1.7-0.9s-1.5-0.4-2.3-0.6c-0.8-0.2-1.7-0.4-2.5-0.6c-0.8-0.2-1.6-0.5-2.3-0.9
		s-1.3-0.9-1.7-1.6c-0.4-0.7-0.6-1.5-0.6-2.5c0-1.2,0.3-2.2,1-3c0.6-0.9,1.5-1.5,2.7-2s2.5-0.7,4.2-0.7c1.2,0,2.4,0.1,3.5,0.4
		c1.2,0.3,2.2,0.7,3,1.3l-1.2,2.7c-0.8-0.6-1.7-1-2.6-1.2c-0.9-0.2-1.9-0.3-2.8-0.3c-1.5,0-2.7,0.3-3.4,0.8s-1,1.2-1,2
		c0,0.6,0.2,1.1,0.6,1.5s1,0.7,1.7,0.9s1.5,0.4,2.3,0.6c0.8,0.2,1.7,0.4,2.5,0.6c0.8,0.2,1.6,0.5,2.3,0.9s1.3,0.9,1.7,1.6
		C162.8,138.2,163,139.1,163,140.1z"/>
	<path class="st7" d="M176.4,145.8c-2,0-3.8-0.4-5.4-1.3c-1.6-0.9-2.8-2.1-3.8-3.6c-0.9-1.5-1.4-3.2-1.4-5.1c0-1.9,0.5-3.6,1.4-5.1
		s2.2-2.7,3.8-3.5c1.6-0.9,3.4-1.3,5.4-1.3s3.8,0.4,5.4,1.3c1.6,0.9,2.8,2,3.8,3.5c0.9,1.5,1.4,3.2,1.4,5.1c0,1.9-0.5,3.6-1.4,5.1
		s-2.2,2.7-3.8,3.6C180.2,145.3,178.4,145.8,176.4,145.8z M176.3,142.9c1.4,0,2.6-0.3,3.7-0.9c1.1-0.6,1.9-1.5,2.6-2.5
		c0.6-1.1,0.9-2.3,0.9-3.6c0-1.4-0.3-2.6-0.9-3.7c-0.6-1.1-1.5-1.9-2.6-2.5s-2.3-0.9-3.7-0.9s-2.6,0.3-3.7,0.9
		c-1.1,0.6-1.9,1.4-2.6,2.5c-0.6,1.1-0.9,2.3-0.9,3.7c0,1.3,0.3,2.6,0.9,3.6c0.6,1.1,1.5,1.9,2.6,2.5
		C173.7,142.6,175,142.9,176.3,142.9z"/>
	<path class="st7" d="M191.7,145.6v-19.4h3.3v16.6h10.4v2.8L191.7,145.6L191.7,145.6z"/>
	<path class="st7" d="M216.8,145.8c-1.8,0-3.3-0.3-4.6-1s-2.2-1.6-2.9-2.9c-0.7-1.3-1-2.8-1-4.6v-11.1h3.3v11c0,1.9,0.4,3.3,1.3,4.3
		c0.9,1,2.2,1.5,3.9,1.5s3-0.5,3.9-1.4c0.9-1,1.3-2.4,1.3-4.3v-11h3.2v11.1c0,1.8-0.3,3.3-1,4.6s-1.6,2.3-2.9,2.9
		C220.1,145.6,218.6,145.8,216.8,145.8z"/>
	<path class="st7" d="M235.2,145.6v-16.6h-6.6v-2.7h16.5v2.7h-6.6v16.6H235.2z"/>
	<path class="st7" d="M248.5,145.6v-19.4h3.3v19.4H248.5z"/>
	<path class="st7" d="M267.2,145.8c-2,0-3.8-0.4-5.4-1.3c-1.6-0.9-2.8-2.1-3.8-3.6c-0.9-1.5-1.4-3.2-1.4-5.1c0-1.9,0.5-3.6,1.4-5.1
		s2.2-2.7,3.8-3.5c1.6-0.9,3.4-1.3,5.4-1.3s3.8,0.4,5.4,1.3c1.6,0.9,2.8,2,3.8,3.5c0.9,1.5,1.4,3.2,1.4,5.1c0,1.9-0.5,3.6-1.4,5.1
		s-2.2,2.7-3.8,3.6C271,145.3,269.2,145.8,267.2,145.8z M267.2,142.9c1.4,0,2.6-0.3,3.7-0.9c1.1-0.6,1.9-1.5,2.6-2.5
		c0.6-1.1,0.9-2.3,0.9-3.6c0-1.4-0.3-2.6-0.9-3.7c-0.6-1.1-1.5-1.9-2.6-2.5s-2.3-0.9-3.7-0.9c-1.4,0-2.6,0.3-3.7,0.9
		c-1.1,0.6-1.9,1.4-2.6,2.5c-0.6,1.1-0.9,2.3-0.9,3.7c0,1.3,0.3,2.6,0.9,3.6c0.6,1.1,1.5,1.9,2.6,2.5
		C264.6,142.6,265.8,142.9,267.2,142.9z"/>
	<path class="st7" d="M282.5,145.6v-19.4h2.7l12.4,15.3h-1.3v-15.3h3.3v19.4h-2.7l-12.4-15.3h1.3v15.3H282.5z"/>
	<path class="st7" d="M319.9,140.1c0,1.2-0.3,2.2-0.9,3.1c-0.6,0.9-1.5,1.5-2.7,2s-2.6,0.7-4.2,0.7c-1.5,0-3-0.2-4.4-0.6
		c-1.4-0.4-2.5-1-3.3-1.7l1.3-2.6c0.8,0.6,1.7,1.1,2.9,1.5c1.2,0.4,2.4,0.6,3.6,0.6c1.6,0,2.8-0.3,3.4-0.8c0.7-0.5,1-1.2,1-1.9
		c0-0.6-0.2-1.1-0.6-1.5s-1-0.7-1.7-0.9s-1.5-0.4-2.3-0.6c-0.8-0.2-1.7-0.4-2.5-0.6c-0.8-0.2-1.6-0.5-2.3-0.9
		c-0.7-0.4-1.3-0.9-1.7-1.6c-0.4-0.7-0.6-1.5-0.6-2.5c0-1.2,0.3-2.2,1-3c0.6-0.9,1.5-1.5,2.7-2s2.5-0.7,4.2-0.7
		c1.2,0,2.4,0.1,3.5,0.4c1.2,0.3,2.2,0.7,3,1.3l-1.2,2.7c-0.8-0.6-1.7-1-2.6-1.2s-1.9-0.3-2.8-0.3c-1.5,0-2.7,0.3-3.4,0.8
		c-0.7,0.5-1,1.2-1,2c0,0.6,0.2,1.1,0.6,1.5s1,0.7,1.7,0.9s1.5,0.4,2.3,0.6c0.8,0.2,1.7,0.4,2.5,0.6c0.8,0.2,1.6,0.5,2.3,0.9
		c0.7,0.4,1.3,0.9,1.7,1.6C319.7,138.2,319.9,139.1,319.9,140.1z"/>
</g>
</svg>
